<svg xmlns="http://www.w3.org/2000/svg" viewBox="0 0 400 500" width="400" height="500">
  <rect width="400" height="500" fill="#d4c5a9"/>
  <!-- T-shirt silhouette -->
  <g opacity="0.13" fill="#2a2a2a">
    <rect x="123.3" y="173.3" width="153.3" height="173.3" rx="4"/>
    <path d="M 183.3,173.3 Q 200.0,200.0 216.7,173.3 L 226.7,153.3 Q 200.0,166.7 173.3,153.3 Z"/>
    <path d="M 123.3,173.3 L 86.7,206.7 L 100.0,226.7 L 123.3,193.3 Z"/>
    <path d="M 276.7,173.3 L 313.3,206.7 L 300.0,226.7 L 276.7,193.3 Z"/>
  </g>
  <!-- Brand watermark letter -->
  <text x="200" y="250" font-family="Arial Black,Arial,sans-serif" font-size="140"
        font-weight="900" fill="#2a2a2a" opacity="0.05" text-anchor="middle" dominant-baseline="middle">H</text>
  <!-- Product name -->
  <text x="200" y="440" font-family="Arial,sans-serif" font-size="18"
        font-weight="600" fill="#2a2a2a" opacity="0.75" text-anchor="middle">Linen Summer Shirt</text>
  <!-- Product ID -->
  <text x="200" y="465" font-family="monospace" font-size="12"
        fill="#2a2a2a" opacity="0.35" text-anchor="middle">SHIRT-002</text>
  <!-- Corner marks -->
  <rect x="10" y="10" width="24" height="2" fill="#2a2a2a" opacity="0.25"/>
  <rect x="10" y="10" width="2" height="24" fill="#2a2a2a" opacity="0.25"/>
  <rect x="366" y="10" width="24" height="2" fill="#2a2a2a" opacity="0.25"/>
  <rect x="388" y="10" width="2" height="24" fill="#2a2a2a" opacity="0.25"/>
  <rect x="10" y="488" width="24" height="2" fill="#2a2a2a" opacity="0.25"/>
  <rect x="10" y="466" width="2" height="24" fill="#2a2a2a" opacity="0.25"/>
  <rect x="366" y="488" width="24" height="2" fill="#2a2a2a" opacity="0.25"/>
  <rect x="388" y="466" width="2" height="24" fill="#2a2a2a" opacity="0.25"/>
</svg>