<svg xmlns="http://www.w3.org/2000/svg" viewBox="0 0 800 1000" width="800" height="1000">
  <rect width="800" height="1000" fill="#c9b99a"/>
  <!-- T-shirt silhouette -->
  <g opacity="0.13" fill="#2a2a2a">
    <rect x="246.7" y="346.7" width="306.7" height="346.7" rx="4"/>
    <path d="M 366.7,346.7 Q 400.0,400.0 433.3,346.7 L 453.3,306.7 Q 400.0,333.3 346.7,306.7 Z"/>
    <path d="M 246.7,346.7 L 173.3,413.3 L 200.0,453.3 L 246.7,386.7 Z"/>
    <path d="M 553.3,346.7 L 626.7,413.3 L 600.0,453.3 L 553.3,386.7 Z"/>
  </g>
  <!-- Brand watermark letter -->
  <text x="400" y="500" font-family="Arial Black,Arial,sans-serif" font-size="280"
        font-weight="900" fill="#2a2a2a" opacity="0.05" text-anchor="middle" dominant-baseline="middle">H</text>
  <!-- Product name -->
  <text x="400" y="880" font-family="Arial,sans-serif" font-size="36"
        font-weight="600" fill="#2a2a2a" opacity="0.75" text-anchor="middle">Oversized Drop Sho…</text>
  <!-- Product ID -->
  <text x="400" y="930" font-family="monospace" font-size="25"
        fill="#2a2a2a" opacity="0.35" text-anchor="middle">TSHIRT-002</text>
  <!-- Corner marks -->
  <rect x="10" y="10" width="24" height="2" fill="#2a2a2a" opacity="0.25"/>
  <rect x="10" y="10" width="2" height="24" fill="#2a2a2a" opacity="0.25"/>
  <rect x="766" y="10" width="24" height="2" fill="#2a2a2a" opacity="0.25"/>
  <rect x="788" y="10" width="2" height="24" fill="#2a2a2a" opacity="0.25"/>
  <rect x="10" y="988" width="24" height="2" fill="#2a2a2a" opacity="0.25"/>
  <rect x="10" y="966" width="2" height="24" fill="#2a2a2a" opacity="0.25"/>
  <rect x="766" y="988" width="24" height="2" fill="#2a2a2a" opacity="0.25"/>
  <rect x="788" y="966" width="2" height="24" fill="#2a2a2a" opacity="0.25"/>
</svg>